<svg width="43" height="43" viewBox="0 0 43 43" fill="none" xmlns="http://www.w3.org/2000/svg">
<path fill-rule="evenodd" clip-rule="evenodd" d="M21.5001 3.58337C23.853 3.58336 26.1828 4.04678 28.3566 4.94717C30.5303 5.84756 32.5054 7.16729 34.1692 8.83101C35.8329 10.4947 37.1526 12.4698 38.053 14.6436C38.9534 16.8173 39.4169 19.1472 39.4169 21.5C39.4169 31.3951 31.3953 39.4167 21.5001 39.4167C11.6051 39.4167 3.5835 31.3951 3.5835 21.5C3.5835 11.605 11.6051 3.58337 21.5001 3.58337ZM23.2919 23.2917H19.7085C15.2729 23.2917 11.4648 25.9781 9.82228 29.813C12.4211 33.4571 16.6831 35.8334 21.5001 35.8334C26.3171 35.8334 30.5792 33.4571 33.1781 29.8127C31.5356 25.9781 27.7275 23.2917 23.2919 23.2917ZM21.5001 8.95837C18.5316 8.95837 16.1251 11.3649 16.1251 14.3334C16.1251 17.3019 18.5316 19.7084 21.5001 19.7084C24.4686 19.7084 26.8751 17.3019 26.8751 14.3334C26.8751 11.3649 24.4687 8.95837 21.5001 8.95837Z" fill="#3A285A"/>
</svg>
