<svg width="22" height="22" viewBox="0 0 22 22" fill="none" xmlns="http://www.w3.org/2000/svg">
<path d="M8.45801 15C8.67419 15 8.83301 15.0674 8.9668 15.2012C9.10046 15.3349 9.16747 15.4925 9.16699 15.707V20.542C9.16692 20.758 9.09856 20.9161 8.96484 21.0498C8.83126 21.1833 8.67425 21.2504 8.45996 21.25H1.20801C0.992014 21.2499 0.834826 21.182 0.702148 21.0488C0.601948 20.9482 0.538287 20.8342 0.512695 20.6924L0.5 20.54V15.708C0.500068 15.492 0.568032 15.3348 0.701172 15.2021C0.801764 15.1019 0.915794 15.0383 1.05762 15.0127L1.20996 15H8.45801ZM20.542 10.167C20.758 10.1671 20.9161 10.2344 21.0498 10.3682C21.1835 10.5019 21.2505 10.6594 21.25 10.874V20.542C21.2499 20.7579 21.1825 20.9161 21.0488 21.0498C20.9151 21.1835 20.7575 21.2505 20.543 21.25H13.292C13.0758 21.25 12.9179 21.182 12.7852 21.0488C12.6516 20.9147 12.5835 20.7558 12.583 20.54V10.875C12.583 10.6589 12.6511 10.5018 12.7842 10.3691C12.8849 10.2687 12.9995 10.2052 13.1416 10.1797L13.293 10.167H20.542ZM8.45801 0.5C8.67419 0.5 8.83301 0.567388 8.9668 0.701172C9.10046 0.834858 9.16747 0.992489 9.16699 1.20703V10.875C9.16699 11.0912 9.09863 11.249 8.96484 11.3828C8.83122 11.5164 8.67434 11.5834 8.45996 11.583H1.20801C0.992121 11.5829 0.834784 11.5158 0.702148 11.3828C0.601801 11.2821 0.538261 11.1674 0.512695 11.0254L0.5 10.874V1.20801C0.500068 0.992014 0.568032 0.834826 0.701172 0.702148C0.801764 0.601948 0.915794 0.538287 1.05762 0.512695L1.20996 0.5H8.45801ZM20.542 0.5C20.7579 0.500068 20.9161 0.567531 21.0498 0.701172C21.1835 0.834869 21.2505 0.992465 21.25 1.20703V6.04199C21.2499 6.25794 21.1825 6.41611 21.0488 6.5498C20.9151 6.6835 20.7575 6.75048 20.543 6.75H13.292C13.0758 6.75 12.9179 6.68203 12.7852 6.54883C12.6516 6.41468 12.5835 6.25583 12.583 6.04004V1.20801C12.5831 0.992034 12.6511 0.834819 12.7842 0.702148C12.885 0.601727 12.9994 0.538224 13.1416 0.512695L13.293 0.5H20.542Z" fill="#685786" stroke="black"/>
</svg>
