<svg width="23" height="21" viewBox="0 0 23 21" fill="none" xmlns="http://www.w3.org/2000/svg">
<path d="M5.886 16.6139C7.35845 18.0864 9.29594 19.0027 11.3683 19.2067C13.4406 19.4107 15.5196 18.8898 17.2509 17.7327C18.9822 16.5756 20.2587 14.854 20.8629 12.8612C21.467 10.8684 21.3615 8.72776 20.5642 6.80408C19.7669 4.88039 18.3272 3.2927 16.4904 2.31158C14.6537 1.33045 12.5335 1.0166 10.4913 1.42352C8.44909 1.83043 6.61116 2.93293 5.29073 4.54312C3.97031 6.15332 3.24909 8.17157 3.25 10.2539V12.2499" stroke="#685786" stroke-width="2.5" stroke-linecap="round" stroke-linejoin="round"/>
<path d="M1.25 10.2499L3.25 12.2499L5.25 10.2499M11.25 6.24988V11.2499H16.25" stroke="#685786" stroke-width="2.5" stroke-linecap="round" stroke-linejoin="round"/>
</svg>
