<svg width="25" height="25" viewBox="0 0 25 25" fill="none" xmlns="http://www.w3.org/2000/svg">
<path d="M12.5002 14.5833C12.7062 14.5833 12.9076 14.5222 13.0789 14.4078C13.2502 14.2933 13.3837 14.1306 13.4625 13.9403C13.5414 13.7499 13.562 13.5405 13.5218 13.3384C13.4816 13.1364 13.3824 12.9508 13.2367 12.8051C13.0911 12.6594 12.9054 12.5602 12.7034 12.52C12.5013 12.4798 12.2919 12.5004 12.1015 12.5793C11.9112 12.6581 11.7485 12.7916 11.634 12.9629C11.5196 13.1342 11.4585 13.3356 11.4585 13.5416C11.4585 13.8179 11.5682 14.0829 11.7636 14.2782C11.9589 14.4736 12.2239 14.5833 12.5002 14.5833ZM17.7085 14.5833C17.9145 14.5833 18.1159 14.5222 18.2872 14.4078C18.4585 14.2933 18.592 14.1306 18.6709 13.9403C18.7497 13.7499 18.7703 13.5405 18.7301 13.3384C18.69 13.1364 18.5907 12.9508 18.4451 12.8051C18.2994 12.6594 18.1138 12.5602 17.9117 12.52C17.7097 12.4798 17.5002 12.5004 17.3099 12.5793C17.1195 12.6581 16.9568 12.7916 16.8424 12.9629C16.7279 13.1342 16.6668 13.3356 16.6668 13.5416C16.6668 13.8179 16.7766 14.0829 16.9719 14.2782C17.1673 14.4736 17.4322 14.5833 17.7085 14.5833ZM12.5002 18.75C12.7062 18.75 12.9076 18.6889 13.0789 18.5744C13.2502 18.46 13.3837 18.2973 13.4625 18.1069C13.5414 17.9166 13.562 17.7072 13.5218 17.5051C13.4816 17.303 13.3824 17.1174 13.2367 16.9717C13.0911 16.8261 12.9054 16.7269 12.7034 16.6867C12.5013 16.6465 12.2919 16.6671 12.1015 16.7459C11.9112 16.8248 11.7485 16.9583 11.634 17.1296C11.5196 17.3009 11.4585 17.5023 11.4585 17.7083C11.4585 17.9846 11.5682 18.2495 11.7636 18.4449C11.9589 18.6402 12.2239 18.75 12.5002 18.75ZM17.7085 18.75C17.9145 18.75 18.1159 18.6889 18.2872 18.5744C18.4585 18.46 18.592 18.2973 18.6709 18.1069C18.7497 17.9166 18.7703 17.7072 18.7301 17.5051C18.69 17.303 18.5907 17.1174 18.4451 16.9717C18.2994 16.8261 18.1138 16.7269 17.9117 16.6867C17.7097 16.6465 17.5002 16.6671 17.3099 16.7459C17.1195 16.8248 16.9568 16.9583 16.8424 17.1296C16.7279 17.3009 16.6668 17.5023 16.6668 17.7083C16.6668 17.9846 16.7766 18.2495 16.9719 18.4449C17.1673 18.6402 17.4322 18.75 17.7085 18.75ZM7.29183 14.5833C7.49785 14.5833 7.69925 14.5222 7.87055 14.4078C8.04185 14.2933 8.17536 14.1306 8.2542 13.9403C8.33305 13.7499 8.35367 13.5405 8.31348 13.3384C8.27329 13.1364 8.17408 12.9508 8.0284 12.8051C7.88272 12.6594 7.69711 12.5602 7.49505 12.52C7.29298 12.4798 7.08354 12.5004 6.8932 12.5793C6.70286 12.6581 6.54017 12.7916 6.42571 12.9629C6.31126 13.1342 6.25016 13.3356 6.25016 13.5416C6.25016 13.8179 6.35991 14.0829 6.55526 14.2782C6.75061 14.4736 7.01556 14.5833 7.29183 14.5833ZM19.7918 4.16665H18.7502V3.12498C18.7502 2.84871 18.6404 2.58376 18.4451 2.38841C18.2497 2.19306 17.9848 2.08331 17.7085 2.08331C17.4322 2.08331 17.1673 2.19306 16.9719 2.38841C16.7766 2.58376 16.6668 2.84871 16.6668 3.12498V4.16665H8.3335V3.12498C8.3335 2.84871 8.22375 2.58376 8.0284 2.38841C7.83305 2.19306 7.5681 2.08331 7.29183 2.08331C7.01556 2.08331 6.75061 2.19306 6.55526 2.38841C6.35991 2.58376 6.25016 2.84871 6.25016 3.12498V4.16665H5.2085C4.37969 4.16665 3.58484 4.49589 2.99879 5.08194C2.41274 5.66799 2.0835 6.46284 2.0835 7.29165V19.7916C2.0835 20.6204 2.41274 21.4153 2.99879 22.0014C3.58484 22.5874 4.37969 22.9166 5.2085 22.9166H19.7918C20.6206 22.9166 21.4155 22.5874 22.0015 22.0014C22.5876 21.4153 22.9168 20.6204 22.9168 19.7916V7.29165C22.9168 6.46284 22.5876 5.66799 22.0015 5.08194C21.4155 4.49589 20.6206 4.16665 19.7918 4.16665ZM20.8335 19.7916C20.8335 20.0679 20.7237 20.3329 20.5284 20.5282C20.333 20.7236 20.0681 20.8333 19.7918 20.8333H5.2085C4.93223 20.8333 4.66728 20.7236 4.47193 20.5282C4.27658 20.3329 4.16683 20.0679 4.16683 19.7916V10.4166H20.8335V19.7916ZM20.8335 8.33331H4.16683V7.29165C4.16683 7.01538 4.27658 6.75043 4.47193 6.55508C4.66728 6.35973 4.93223 6.24998 5.2085 6.24998H19.7918C20.0681 6.24998 20.333 6.35973 20.5284 6.55508C20.7237 6.75043 20.8335 7.01538 20.8335 7.29165V8.33331ZM7.29183 18.75C7.49785 18.75 7.69925 18.6889 7.87055 18.5744C8.04185 18.46 8.17536 18.2973 8.2542 18.1069C8.33305 17.9166 8.35367 17.7072 8.31348 17.5051C8.27329 17.303 8.17408 17.1174 8.0284 16.9717C7.88272 16.8261 7.69711 16.7269 7.49505 16.6867C7.29298 16.6465 7.08354 16.6671 6.8932 16.7459C6.70286 16.8248 6.54017 16.9583 6.42571 17.1296C6.31126 17.3009 6.25016 17.5023 6.25016 17.7083C6.25016 17.9846 6.35991 18.2495 6.55526 18.4449C6.75061 18.6402 7.01556 18.75 7.29183 18.75Z" fill="#685786"/>
</svg>
