<svg width="41" height="41" viewBox="0 0 41 41" fill="none" xmlns="http://www.w3.org/2000/svg">
<path d="M20.4998 3.41663C17.3283 3.41663 14.2866 4.67652 12.044 6.91914C9.80139 9.16176 8.5415 12.2034 8.5415 15.375V21.402C8.54174 21.667 8.48033 21.9284 8.36212 22.1656L5.42891 28.0303C5.28563 28.3168 5.21797 28.6352 5.23237 28.9552C5.24676 29.2753 5.34273 29.5863 5.51116 29.8588C5.67959 30.1313 5.91489 30.3562 6.1947 30.5122C6.47452 30.6682 6.78956 30.75 7.10991 30.75H33.8897C34.2101 30.75 34.5251 30.6682 34.805 30.5122C35.0848 30.3562 35.3201 30.1313 35.4885 29.8588C35.6569 29.5863 35.7529 29.2753 35.7673 28.9552C35.7817 28.6352 35.714 28.3168 35.5707 28.0303L32.6392 22.1656C32.5204 21.9285 32.4584 21.6671 32.4582 21.402V15.375C32.4582 12.2034 31.1983 9.16176 28.9556 6.91914C26.713 4.67652 23.6714 3.41663 20.4998 3.41663ZM20.4998 35.875C19.4395 35.8755 18.4052 35.5472 17.5393 34.9353C16.6734 34.3234 16.0187 33.4579 15.6652 32.4583H25.3344C24.981 33.4579 24.3262 34.3234 23.4603 34.9353C22.5945 35.5472 21.5601 35.8755 20.4998 35.875Z" fill="#3A285A"/>
</svg>
