<svg width="23" height="23" viewBox="0 0 23 23" fill="none" xmlns="http://www.w3.org/2000/svg">
<path d="M15.8125 15.8125V20.125H4.3125V2.875H11.5V1.4375H4.3125C3.93125 1.4375 3.56562 1.58895 3.29603 1.85853C3.02645 2.12812 2.875 2.49375 2.875 2.875V20.125C2.875 20.5062 3.02645 20.8719 3.29603 21.1415C3.56562 21.411 3.93125 21.5625 4.3125 21.5625H15.8125C16.1937 21.5625 16.5594 21.411 16.829 21.1415C17.0985 20.8719 17.25 20.5062 17.25 20.125V15.8125H15.8125Z" fill="#685786"/>
<path d="M21.2319 4.14L18.86 1.76813C18.645 1.55742 18.356 1.43939 18.055 1.43939C17.754 1.43939 17.465 1.55742 17.25 1.76813L7.1875 11.8306V15.8125H11.1622L21.2247 5.75C21.4354 5.53503 21.5534 5.24602 21.5534 4.945C21.5534 4.64399 21.4354 4.35497 21.2247 4.14H21.2319ZM10.5656 14.375H8.625V12.4344L15.41 5.64219L17.3578 7.59L10.5656 14.375ZM18.3712 6.57657L16.4234 4.62875L18.055 2.99719L20.0028 4.945L18.3712 6.57657Z" fill="#685786"/>
</svg>
