<svg width="40" height="40" viewBox="0 0 40 40" fill="none" xmlns="http://www.w3.org/2000/svg">
<path d="M18.3333 23.3333V16.4167L15.6667 19.0833L13.3333 16.6667L20 10L26.6667 16.6667L24.3333 19.0833L21.6667 16.4167V23.3333H18.3333ZM8.33333 35C7.41667 35 6.625 34.6806 5.95833 34.0417C5.31944 33.375 5 32.5833 5 31.6667V8.33333C5 7.41667 5.31944 6.63889 5.95833 6C6.625 5.33333 7.41667 5 8.33333 5H31.6667C32.5833 5 33.3611 5.33333 34 6C34.6667 6.63889 35 7.41667 35 8.33333V31.6667C35 32.5833 34.6667 33.375 34 34.0417C33.3611 34.6806 32.5833 35 31.6667 35H8.33333ZM8.33333 31.6667H31.6667V26.6667H26.6667C25.8333 27.7222 24.8333 28.5417 23.6667 29.125C22.5278 29.7083 21.3056 30 20 30C18.6944 30 17.4583 29.7083 16.2917 29.125C15.1528 28.5417 14.1667 27.7222 13.3333 26.6667H8.33333V31.6667ZM20 26.6667C21.0556 26.6667 22.0139 26.3611 22.875 25.75C23.7361 25.1389 24.3333 24.3333 24.6667 23.3333H31.6667V8.33333H8.33333V23.3333H15.3333C15.6667 24.3333 16.2639 25.1389 17.125 25.75C17.9861 26.3611 18.9444 26.6667 20 26.6667ZM8.33333 31.6667H13.3333C14.1667 31.6667 15.1528 31.6667 16.2917 31.6667C17.4583 31.6667 18.6944 31.6667 20 31.6667C21.3056 31.6667 22.5278 31.6667 23.6667 31.6667C24.8333 31.6667 25.8333 31.6667 26.6667 31.6667H31.6667H8.33333Z" fill="#5B62B3"/>
</svg>
