<svg width="35" height="35" viewBox="0 0 35 35" fill="none" xmlns="http://www.w3.org/2000/svg">
<g clip-path="url(#clip0_37_174)">
<path d="M32.0833 16.1583V17.5C32.0815 20.6448 31.0632 23.7047 29.1802 26.2235C27.2973 28.7423 24.6506 30.5849 21.6349 31.4765C18.6191 32.3682 15.396 32.2611 12.4461 31.1713C9.49616 30.0814 6.97758 28.0672 5.26594 25.4291C3.55431 22.7909 2.74132 19.6701 2.94824 16.5321C3.15515 13.3942 4.37089 10.4071 6.41412 8.01656C8.45735 5.62598 11.2186 3.95993 14.2861 3.26688C17.3535 2.57382 20.5628 2.89091 23.4354 4.17083M32.0833 5.83333L17.5 20.4312L13.125 16.0562" stroke="#5B62B3" stroke-width="4" stroke-linecap="round" stroke-linejoin="round"/>
</g>
<defs>
<clipPath id="clip0_37_174">
<rect width="35" height="35" fill="white"/>
</clipPath>
</defs>
</svg>
