<svg width="178" height="178" viewBox="0 0 178 178" fill="none" xmlns="http://www.w3.org/2000/svg">
<path d="M173.169 116.348C165.915 138.671 150.092 157.198 129.178 167.854L89 89L173.169 116.348Z" fill="#DEC2DB" stroke="white"/>
<path d="M129.178 167.854C117.255 173.929 104.109 177.221 90.7294 177.483C77.35 177.744 64.0855 174.968 51.9338 169.364C39.7821 163.759 29.0596 155.472 20.5731 145.125C12.0865 134.778 6.05682 122.641 2.93766 109.628C-0.181492 96.6147 -0.308918 83.0635 2.56498 69.9938C5.43889 56.924 11.2393 44.6762 19.5298 34.1717C27.8203 23.6672 38.385 15.1796 50.4292 9.34737C62.4733 3.51513 75.6833 0.490154 89.0653 0.50002L89 88.9999L129.178 167.854Z" fill="#6DA0E1" stroke="white"/>
<path d="M89 0.500118C102.966 0.500118 116.734 3.80551 129.178 10.146C141.622 16.4866 152.389 25.6822 160.598 36.9811C168.807 48.28 174.226 61.3614 176.41 75.1556C178.595 88.9499 177.484 103.065 173.168 116.348L89 89.0001L89 0.500118Z" fill="#2E80E4" stroke="white"/>
</svg>
