<svg width="40" height="40" viewBox="0 0 40 40" fill="none" xmlns="http://www.w3.org/2000/svg">
<path d="M33.3334 33.3333V15.22L20 7.21999L6.66671 15.22V33.3333H13.3334V28.75C13.3334 26.9819 14.0358 25.2862 15.286 24.0359C16.5362 22.7857 18.2319 22.0833 20 22.0833C21.7682 22.0833 23.4638 22.7857 24.7141 24.0359C25.9643 25.2862 26.6667 26.9819 26.6667 28.75V33.3333H33.3334ZM23.3334 36.6667V28.75C23.3334 27.8659 22.9822 27.0181 22.3571 26.393C21.7319 25.7678 20.8841 25.4167 20 25.4167C19.116 25.4167 18.2681 25.7678 17.643 26.393C17.0179 27.0181 16.6667 27.8659 16.6667 28.75V36.6667H6.66671C5.78265 36.6667 4.93481 36.3155 4.30968 35.6903C3.68456 35.0652 3.33337 34.2174 3.33337 33.3333V15.22C3.33337 14.6444 3.48243 14.0786 3.76603 13.5777C4.04963 13.0767 4.45812 12.6578 4.95171 12.3617L18.285 4.36166C18.8031 4.05082 19.3959 3.88663 20 3.88663C20.6042 3.88663 21.197 4.05082 21.715 4.36166L35.0484 12.3617C35.542 12.6578 35.9505 13.0767 36.2341 13.5777C36.5177 14.0786 36.6667 14.6444 36.6667 15.22V33.3333C36.6667 34.2174 36.3155 35.0652 35.6904 35.6903C35.0653 36.3155 34.2174 36.6667 33.3334 36.6667H23.3334Z" fill="white"/>
</svg>
