<svg width="40" height="40" viewBox="0 0 40 40" fill="none" xmlns="http://www.w3.org/2000/svg">
<path d="M20.0001 33.3334C19.0834 33.3334 18.2987 33.007 17.6459 32.3542C16.9931 31.7014 16.6667 30.9167 16.6667 30C16.6667 29.0834 16.9931 28.2986 17.6459 27.6459C18.2987 26.9931 19.0834 26.6667 20.0001 26.6667C20.9167 26.6667 21.7015 26.9931 22.3542 27.6459C23.007 28.2986 23.3334 29.0834 23.3334 30C23.3334 30.9167 23.007 31.7014 22.3542 32.3542C21.7015 33.007 20.9167 33.3334 20.0001 33.3334ZM20.0001 23.3334C19.0834 23.3334 18.2987 23.007 17.6459 22.3542C16.9931 21.7014 16.6667 20.9167 16.6667 20C16.6667 19.0834 16.9931 18.2986 17.6459 17.6459C18.2987 16.9931 19.0834 16.6667 20.0001 16.6667C20.9167 16.6667 21.7015 16.9931 22.3542 17.6459C23.007 18.2986 23.3334 19.0834 23.3334 20C23.3334 20.9167 23.007 21.7014 22.3542 22.3542C21.7015 23.007 20.9167 23.3334 20.0001 23.3334ZM20.0001 13.3334C19.0834 13.3334 18.2987 13.007 17.6459 12.3542C16.9931 11.7014 16.6667 10.9167 16.6667 10C16.6667 9.08335 16.9931 8.29863 17.6459 7.64585C18.2987 6.99308 19.0834 6.66669 20.0001 6.66669C20.9167 6.66669 21.7015 6.99308 22.3542 7.64585C23.007 8.29863 23.3334 9.08335 23.3334 10C23.3334 10.9167 23.007 11.7014 22.3542 12.3542C21.7015 13.007 20.9167 13.3334 20.0001 13.3334Z" fill="#5B62B3"/>
</svg>
