<svg width="40" height="40" viewBox="0 0 40 40" fill="none" xmlns="http://www.w3.org/2000/svg">
<path d="M6.66675 31.6666V28.3333H10.0001V16.6666C10.0001 14.3611 10.6945 12.3194 12.0834 10.5416C13.4723 8.73609 15.2779 7.55553 17.5001 6.99998V5.83331C17.5001 5.13887 17.7362 4.55553 18.2084 4.08331C18.7084 3.58331 19.3056 3.33331 20.0001 3.33331C20.6945 3.33331 21.2779 3.58331 21.7501 4.08331C22.2501 4.55553 22.5001 5.13887 22.5001 5.83331V6.99998C24.7223 7.55553 26.5279 8.73609 27.9167 10.5416C29.3056 12.3194 30.0001 14.3611 30.0001 16.6666V28.3333H33.3334V31.6666H6.66675ZM20.0001 36.6666C19.0834 36.6666 18.2917 36.3472 17.6251 35.7083C16.9862 35.0416 16.6667 34.25 16.6667 33.3333H23.3334C23.3334 34.25 23.0001 35.0416 22.3334 35.7083C21.6945 36.3472 20.9167 36.6666 20.0001 36.6666ZM13.3334 28.3333H26.6667V16.6666C26.6667 14.8333 26.014 13.2639 24.7084 11.9583C23.4029 10.6528 21.8334 9.99998 20.0001 9.99998C18.1667 9.99998 16.5973 10.6528 15.2917 11.9583C13.9862 13.2639 13.3334 14.8333 13.3334 16.6666V28.3333Z" fill="#5B62B3"/>
</svg>
