<svg width="24" height="24" viewBox="0 0 24 24" fill="none" xmlns="http://www.w3.org/2000/svg">
<path d="M10.686 12.071L15.636 7.12101C15.8182 6.93241 15.919 6.67981 15.9167 6.41761C15.9144 6.15541 15.8093 5.9046 15.6239 5.71919C15.4384 5.53379 15.1876 5.42862 14.9254 5.42634C14.6632 5.42406 14.4106 5.52485 14.222 5.70701L8.56504 11.364C8.37757 11.5515 8.27225 11.8058 8.27225 12.071C8.27225 12.3362 8.37757 12.5905 8.56504 12.778L14.222 18.435C14.4106 18.6172 14.6632 18.718 14.9254 18.7157C15.1876 18.7134 15.4384 18.6082 15.6239 18.4228C15.8093 18.2374 15.9144 17.9866 15.9167 17.7244C15.919 17.4622 15.8182 17.2096 15.636 17.021L10.686 12.071Z" fill="#DEC2DB"/>
</svg>
